<?xml version="1.0" standalone="no"?>
<!DOCTYPE svg PUBLIC "-//W3C//DTD SVG 1.1//EN" "http://www.w3.org/Graphics/SVG/1.1/DTD/svg11.dtd">
<svg xmlns="http://www.w3.org/2000/svg" width="608" height="550" viewBox="0 0 608 550" fill="none">
<g clip-path="url(#clip0_0_1)">
<path fill-rule="evenodd" clip-rule="evenodd" d="M180.78 226.946C250.474 269.654 342.061 247.014 385.345 176.379C407.424 140.35 412.671 98.7928 403.264 61.0532C438.749 108.451 443.595 175.105 410.405 229.266C367.12 299.901 275.533 322.541 205.84 279.833C171.695 258.91 149.14 226.183 140.105 189.934C150.898 204.35 164.526 216.986 180.78 226.946Z" fill="#E2E2E2"/>
<path d="M461.5 251.667C454.5 251.667 447.5 252.833 440.5 256.333C442.833 251.667 444 245.833 444 240C444 214.333 423 193.333 397.333 193.333C386.833 193.333 378.667 196.833 370.5 201.5C358.833 157.167 318 123.333 269 123.333C210.667 123.333 164 170 164 228.333C164 233 164 237.667 165.167 241.167C160.5 240 157 240 152.333 240C119.667 240 94 265.667 94 298.333C94 331 119.667 356.667 152.333 356.667H461.5C490.667 356.667 514 333.333 514 304.167C514 275 490.667 251.667 461.5 251.667Z" fill="#31363F"/>
<path d="M206.609 339.674C204.557 338.948 201.548 337.714 200.043 336.843C196.349 334.81 191.288 328.784 188.689 323.267C186.295 318.33 179.249 298.728 179.249 297.131C179.249 296.477 182.464 297.857 189.236 301.559L199.154 307.004L204.763 304.463C207.841 303.084 212.423 301.051 215.023 300.035C217.553 298.946 242.998 288.782 254.216 284.353L274.667 276.295L295.598 276.149L316.528 276.077L321.59 278.836C324.394 280.36 332.123 286.096 338.827 291.686L351.002 301.777L380.551 302.068C408.663 302.285 410.373 302.431 415.571 303.955C422.206 305.988 428.841 309.11 437.254 314.41C445.394 319.564 449.019 322.831 448.403 324.574C447.172 327.841 445.873 327.55 432.877 320.726C421.249 314.627 416.734 312.74 419.47 315.136C424.6 319.564 427.336 330.091 425.558 338.513C425.079 340.546 425.079 340.473 424.669 337.279C424.121 332.342 421.591 327.405 417.35 322.831C411.604 316.805 408.116 315.281 400.181 315.281C394.094 315.281 393.41 315.426 389.374 317.749C384.518 320.581 379.798 325.663 377.815 330.309C374.805 337.424 374.805 337.424 375.215 332.705C375.694 326.824 378.841 320.218 383.013 316.225L386.296 313.103L322.342 313.321L258.457 313.466L260.919 316.225C265.981 321.742 268.58 328.93 267.759 335.318L267.28 338.876L265.844 334.229C263.313 326.389 258.593 320.508 251.822 316.951C249.223 315.571 247.581 315.281 242.177 315.281C236.363 315.281 235.269 315.499 231.986 317.386C225.761 320.798 218.921 329.656 218.921 334.302C218.921 335.028 218.579 336.117 218.169 336.698C217.69 337.496 217.622 336.407 217.895 333.068C218.579 326.389 221.179 320.653 225.283 316.66L228.634 313.466H210.782C195.802 313.466 192.929 313.611 192.929 314.482C192.929 316.297 197.717 325.3 199.975 327.913C201.206 329.22 203.326 331.108 204.694 332.051C207.43 333.866 209.345 335.899 211.534 339.094C212.765 340.909 212.765 341.054 211.603 340.981C210.919 340.981 208.661 340.4 206.609 339.674ZM340.4 304.826C339.921 304.1 323.163 289.29 319.811 286.749C317.759 285.152 317.486 285.152 294.298 285.297L270.905 285.515L274.12 290.379C275.967 293.065 278.908 297.566 280.755 300.398L284.107 305.48H312.424C329.251 305.48 340.605 305.189 340.4 304.826ZM234.38 298.873C238.894 297.639 246.555 295.679 251.411 294.517C256.336 293.356 260.987 292.267 261.808 292.049L263.313 291.686L261.945 289.145C261.124 287.765 260.235 286.459 259.961 286.241C257.773 284.789 221.657 298.583 222.683 300.398C223.367 301.559 225.83 301.269 234.38 298.873Z" fill="#E2E2E2"/>
<circle cx="242.5" cy="340.5" r="15.5" fill="#E2E2E2"/>
<circle cx="400.5" cy="340.5" r="15.5" fill="#E2E2E2"/>
<circle cx="400.5" cy="340.5" r="11.5" fill="#31363F"/>
<circle cx="242.5" cy="340.5" r="11.5" fill="#31363F"/>
<rect x="140" y="308" width="36" height="0" fill="#E2E2E2" stroke="#E2E2E2"/>
<rect x="124" y="302" width="37" height="0" fill="#E2E2E2" stroke="#E2E2E2"/>
<rect x="134" y="296" width="41" height="0" fill="#E2E2E2" stroke="#E2E2E2"/>
<rect x="123" y="314" width="49" height="0" fill="#E2E2E2" stroke="#E2E2E2"/>
<rect x="145" y="332" width="36" height="0" fill="#E2E2E2" stroke="#E2E2E2"/>
<rect x="126" y="326" width="40" height="0" fill="#E2E2E2" stroke="#E2E2E2"/>
<rect x="138" y="320" width="42" height="0" fill="#E2E2E2" stroke="#E2E2E2"/>
<rect x="126" y="338" width="51" height="0" fill="#E2E2E2" stroke="#E2E2E2"/>
</g>
<rect x="390" y="374" width="64" height="14" rx="7" fill="#E2E2E2"/>
<rect x="153" y="374" width="247" height="14" rx="7" fill="#31363F"/>
<rect x="182" y="390" width="98" height="14" rx="7" fill="#E2E2E2"/>
<rect x="266" y="390" width="159" height="14" rx="7" fill="#31363F"/>
<rect x="106" y="358" width="83" height="14" rx="7" fill="#E2E2E2"/>
<rect x="223" y="406" width="134" height="14" rx="7" fill="#31363F"/>
<rect x="177" y="358" width="325" height="14" rx="7" fill="#31363F"/>
<defs>
<clipPath id="clip0_0_1">
<rect width="420" height="420" fill="white" transform="translate(94 65)"/>
</clipPath>
</defs>
</svg>